<svg xmlns="http://www.w3.org/2000/svg" width="95.948" height="30" viewBox="0 0 95.948 30">
  <g id="Group_1876" data-name="Group 1876" transform="translate(-143 -575)">
    <path id="_." data-name="." d="M72.2,27.674a.847.847,0,0,0,.648-.27.894.894,0,0,0,.252-.63h0V22.022a.939.939,0,0,0-.252-.666.847.847,0,0,0-.648-.27H67.444a.922.922,0,0,0-.936.936h0v4.752a.847.847,0,0,0,.27.648.939.939,0,0,0,.666.252H72.2Z" transform="translate(165.852 571.886)" fill="#ff4c60"/>
    <text id="Vishnu" transform="translate(145 599)" fill="none" stroke="#fafafa" stroke-width="1" font-size="25" font-family="Arial-BoldMT, Arial" font-weight="700"><tspan x="0" y="0">Vishnu</tspan></text>
  </g>
</svg>
